<svg width="32" height="32" viewBox="0 0 32 32" fill="none" xmlns="http://www.w3.org/2000/svg">
<path d="M12.3066 25.5273C12.2979 25.5063 12.2896 25.4851 12.2812 25.4639C12.2896 25.4851 12.2979 25.5063 12.3066 25.5273ZM12.2354 25.3438L12.2256 25.3164C12.2221 25.3064 12.2193 25.2962 12.2158 25.2861C12.2224 25.3053 12.2285 25.3247 12.2354 25.3438ZM19.9365 24.6924C19.9331 24.7113 19.9294 24.7301 19.9258 24.749C19.9294 24.7301 19.9332 24.7113 19.9365 24.6924ZM12.043 24.5771C12.0376 24.5411 12.0327 24.505 12.0283 24.4688C12.0327 24.505 12.0376 24.5411 12.043 24.5771ZM19.9697 24.4697C19.9661 24.5 19.9624 24.5303 19.958 24.5605C19.9623 24.5303 19.9661 24.5 19.9697 24.4697ZM12.0186 24.3711C12.0152 24.3357 12.0122 24.3002 12.0098 24.2646C12.0122 24.3002 12.0152 24.3356 12.0186 24.3711ZM19.9873 24.291C19.9866 24.3008 19.9862 24.3106 19.9854 24.3203C19.9862 24.3106 19.9866 24.3008 19.9873 24.291ZM12.0049 24.1875C12.0027 24.1433 12.0017 24.099 12.001 24.0547C12.0017 24.099 12.0027 24.1433 12.0049 24.1875ZM19.998 24.0498C19.9976 24.0798 19.9972 24.1097 19.9961 24.1396C19.9972 24.1097 19.9976 24.0798 19.998 24.0498ZM19.9961 23.8496C19.9978 23.8975 19.9991 23.9453 19.999 23.9932C19.999 23.9453 19.9978 23.8975 19.9961 23.8496ZM12.001 23.9258C12.0012 23.9105 12.0015 23.8952 12.002 23.8799C12.0015 23.8952 12.0012 23.9105 12.001 23.9258ZM16 4C17.989 4.00009 19.9017 4.74065 21.3691 6.06934L21.6562 6.34277C23.1565 7.84306 24 9.87827 24 12V13C24 15.894 25.0234 18.5486 26.7305 20.6221L27.0811 21.0293V21.0303C25.0856 21.7669 22.997 22.3097 20.8369 22.6367L19.9219 22.7754V22.7783L18.9072 22.8711C16.9728 23.0453 15.0263 23.0453 13.0918 22.8711L12.0771 22.7783L12.0781 22.7754L11.1631 22.6367C9.2988 22.3542 7.46359 21.9063 5.67969 21.2988L4.91797 21.0283C6.78134 18.9643 7.86296 16.3202 7.9873 13.5537L8 12.998V12C8 9.87827 8.84248 7.84306 10.3428 6.34277C11.843 4.8426 13.8784 4 16 4Z" stroke="#111827" stroke-width="2"/>
</svg>
